<svg width="235" height="70" viewBox="0 0 235 70" fill="none" xmlns="http://www.w3.org/2000/svg">
<rect width="235" height="70" rx="10" fill="#DA5C5C"/>
<path d="M39.6898 45H36.1156V27.8672H45.9359V30.8438H39.6898V35.2617H45.5023V38.2266H39.6898V45ZM59.4158 45L58.1736 40.9219H51.9275L50.6853 45H46.7712L52.8181 27.7969H57.2595L63.3298 45H59.4158ZM57.3064 37.875C56.1579 34.1797 55.5095 32.0898 55.3611 31.6055C55.2204 31.1211 55.1189 30.7383 55.0564 30.457C54.7986 31.457 54.0603 33.9297 52.8415 37.875H57.3064ZM76.3058 45H63.5558V42.6445L71.7706 30.8672H63.7784V27.8672H76.0831V30.2109L67.88 42H76.3058V45ZM88.5434 45H78.6762V27.8672H88.5434V30.8438H82.309V34.6055H88.1098V37.582H82.309V42H88.5434V45ZM95.4022 35.4727H96.574C97.7225 35.4727 98.5701 35.2812 99.117 34.8984C99.6639 34.5156 99.9373 33.9141 99.9373 33.0938C99.9373 32.2812 99.6561 31.7031 99.0936 31.3594C98.5389 31.0156 97.6756 30.8438 96.5037 30.8438H95.4022V35.4727ZM95.4022 38.4258V45H91.7693V27.8672H96.7615C99.0897 27.8672 100.812 28.293 101.93 29.1445C103.047 29.9883 103.605 31.2734 103.605 33C103.605 34.0078 103.328 34.9062 102.773 35.6953C102.219 36.4766 101.433 37.0898 100.418 37.5352C102.996 41.3867 104.676 43.875 105.457 45H101.426L97.3358 38.4258H95.4022ZM116.76 35.9297H117.956C119.073 35.9297 119.909 35.7109 120.463 35.2734C121.018 34.8281 121.295 34.1836 121.295 33.3398C121.295 32.4883 121.061 31.8594 120.592 31.4531C120.131 31.0469 119.405 30.8438 118.413 30.8438H116.76V35.9297ZM124.963 33.2109C124.963 35.0547 124.385 36.4648 123.229 37.4414C122.081 38.418 120.444 38.9062 118.319 38.9062H116.76V45H113.127V27.8672H118.6C120.678 27.8672 122.256 28.3164 123.335 29.2148C124.42 30.1055 124.963 31.4375 124.963 33.2109ZM137.705 45H127.838V27.8672H137.705V30.8438H131.471V34.6055H137.271V37.582H131.471V42H137.705V45ZM155.146 36.2695C155.146 39.0898 154.341 41.25 152.732 42.75C151.13 44.25 148.814 45 145.782 45H140.931V27.8672H146.31C149.107 27.8672 151.279 28.6055 152.825 30.082C154.372 31.5586 155.146 33.6211 155.146 36.2695ZM151.372 36.3633C151.372 32.6836 149.747 30.8438 146.497 30.8438H144.564V42H146.122C149.622 42 151.372 40.1211 151.372 36.3633ZM158.337 45V27.8672H161.969V45H158.337ZM180.137 36.2695C180.137 39.0898 179.332 41.25 177.723 42.75C176.121 44.25 173.805 45 170.773 45H165.922V27.8672H171.301C174.098 27.8672 176.27 28.6055 177.816 30.082C179.363 31.5586 180.137 33.6211 180.137 36.2695ZM176.363 36.3633C176.363 32.6836 174.738 30.8438 171.488 30.8438H169.555V42H171.113C174.613 42 176.363 40.1211 176.363 36.3633ZM198.878 36.4102C198.878 39.2461 198.175 41.4258 196.769 42.9492C195.363 44.4727 193.347 45.2344 190.722 45.2344C188.097 45.2344 186.081 44.4727 184.675 42.9492C183.269 41.4258 182.566 39.2383 182.566 36.3867C182.566 33.5352 183.269 31.3594 184.675 29.8594C186.089 28.3516 188.113 27.5977 190.745 27.5977C193.378 27.5977 195.39 28.3555 196.781 29.8711C198.179 31.3867 198.878 33.5664 198.878 36.4102ZM186.374 36.4102C186.374 38.3242 186.738 39.7656 187.464 40.7344C188.191 41.7031 189.277 42.1875 190.722 42.1875C193.62 42.1875 195.07 40.2617 195.07 36.4102C195.07 32.5508 193.628 30.6211 190.745 30.6211C189.3 30.6211 188.21 31.1094 187.476 32.0859C186.742 33.0547 186.374 34.4961 186.374 36.4102Z" fill="white"/>
</svg>
